<?xml version="1.0" standalone="no"?>
<!DOCTYPE svg PUBLIC "-//W3C//DTD SVG 20010904//EN"
 "http://www.w3.org/TR/2001/REC-SVG-20010904/DTD/svg10.dtd">
<svg version="1.0" xmlns="http://www.w3.org/2000/svg"
 width="442.000000pt" height="114.000000pt" viewBox="0 0 442.000000 114.000000"
 preserveAspectRatio="xMidYMid meet">
<metadata>
Created by potrace 1.16, written by Peter Selinger 2001-2019
</metadata>
<g transform="translate(0.000000,114.000000) scale(0.100000,-0.100000)"
fill="#000000" stroke="none">
<path d="M0 570 l0 -570 2210 0 2210 0 0 570 0 570 -2210 0 -2210 0 0 -570z
m1039 130 c35 -77 65 -139 66 -138 1 2 30 65 65 141 l63 137 51 0 c43 -1 48
-2 31 -12 -11 -6 -23 -16 -27 -22 -4 -6 -8 -72 -8 -147 0 -137 5 -160 40 -172
8 -3 -21 -5 -65 -5 -44 0 -70 3 -57 5 13 3 25 10 28 17 3 7 3 68 2 136 l-3
125 -65 -143 c-35 -78 -67 -142 -71 -142 -3 0 -34 62 -69 138 -35 75 -65 139
-67 141 -2 3 -2 -55 -1 -129 3 -134 3 -134 28 -141 16 -4 -2 -7 -45 -7 -43 0
-61 3 -45 7 l25 7 3 156 3 157 -28 15 c-28 15 -28 15 27 15 l55 0 64 -139z
m2182 119 c-16 -6 -21 -14 -16 -27 8 -23 79 -132 85 -132 11 0 80 121 80 139
0 11 -8 22 -17 24 -10 3 11 5 47 5 56 1 62 -1 41 -11 -13 -6 -51 -52 -83 -100
-54 -82 -58 -94 -58 -146 0 -63 6 -76 35 -84 11 -2 -16 -5 -60 -5 -47 0 -70 3
-55 7 23 6 25 12 28 69 3 61 2 64 -58 156 -33 51 -70 98 -83 104 -18 9 -7 11
58 11 60 0 74 -3 56 -10z m-1595 -167 c45 -108 68 -150 85 -159 21 -11 15 -13
-46 -12 -38 1 -62 3 -52 6 20 5 22 31 5 68 -10 23 -16 25 -75 25 -34 0 -63 -2
-63 -4 0 -2 -7 -20 -15 -40 -15 -35 -15 -37 7 -46 18 -7 12 -9 -32 -9 -50 -1
-53 0 -34 14 12 8 48 77 84 160 34 80 65 145 69 145 3 0 34 -67 67 -148z m319
31 c49 -61 94 -112 98 -112 4 -1 6 45 5 101 -3 98 -4 103 -28 115 -23 11 -19
13 40 12 43 -1 56 -3 40 -8 l-25 -7 -5 -159 -5 -159 -94 114 c-52 63 -100 122
-107 130 -12 12 -14 -3 -14 -98 0 -107 1 -113 23 -122 16 -6 7 -9 -38 -8 -33
0 -50 3 -37 5 22 4 22 7 22 144 l0 140 -32 14 -33 15 50 -3 49 -2 91 -112z
m434 57 c-1 -51 -2 -53 -12 -28 -21 45 -48 68 -82 68 -38 0 -58 -20 -53 -52 2
-16 23 -35 70 -63 76 -46 97 -69 98 -106 0 -63 -74 -103 -148 -81 -26 8 -39 8
-49 0 -10 -8 -13 1 -12 48 l1 59 14 -32 c26 -61 94 -83 134 -43 11 11 20 23
20 28 0 18 -34 54 -69 72 -21 10 -52 31 -70 45 -40 35 -43 84 -6 121 23 23 32
25 95 22 l70 -3 -1 -55z m301 38 c70 -48 93 -160 47 -229 -104 -154 -318 -60
-283 126 8 38 57 102 90 115 42 17 112 11 146 -12z m309 7 c32 -16 41 -33 41
-75 0 -27 -30 -62 -63 -73 -19 -6 65 -120 104 -139 l34 -18 -47 0 -47 0 -53
74 c-67 95 -88 99 -88 19 0 -65 6 -78 35 -86 11 -2 -14 -5 -55 -5 -54 -1 -69
2 -52 8 21 9 22 13 22 150 0 137 -1 141 -22 150 -16 6 4 9 70 9 63 1 102 -4
121 -14z"/>
<path d="M2538 763 c-29 -34 -38 -62 -38 -123 0 -102 31 -150 98 -150 68 0
110 76 97 177 -9 75 -42 113 -99 113 -28 0 -48 -6 -58 -17z"/>
</g>
</svg>
